<?xml version="1.0" standalone="no"?>
<!DOCTYPE svg PUBLIC "-//W3C//DTD SVG 20010904//EN"
 "http://www.w3.org/TR/2001/REC-SVG-20010904/DTD/svg10.dtd">
<svg version="1.0" xmlns="http://www.w3.org/2000/svg"
 width="1024.000000pt" height="1024.000000pt" viewBox="0 0 1024.000000 1024.000000"
 preserveAspectRatio="xMidYMid meet">

<g transform="translate(0.000000,1024.000000) scale(0.100000,-0.100000)"
fill="#000000" stroke="none">
<path d="M4108 7781 c-73 -24 -125 -79 -147 -157 -10 -32 -19 -43 -59 -62 -60
-28 -85 -63 -90 -126 -4 -56 18 -101 68 -138 23 -17 87 -24 144 -16 16 2 25
-10 45 -60 13 -34 29 -61 35 -59 6 3 10 9 9 14 -1 6 14 25 32 43 19 19 35 31
35 27 0 -4 31 14 69 38 38 25 76 45 85 45 8 0 18 5 21 10 10 17 -17 11 -72
-15 -29 -13 -53 -29 -53 -35 0 -6 -4 -9 -9 -5 -6 3 -27 -9 -48 -27 -21 -17
-46 -39 -55 -46 -16 -14 -20 -11 -39 36 -12 29 -25 49 -30 47 -4 -3 -11 0 -14
6 -4 6 -18 8 -34 4 -58 -15 -74 -13 -107 17 -18 16 -38 43 -44 59 -35 83 39
179 136 179 35 0 36 1 19 14 -17 12 -18 17 -6 57 31 103 131 152 225 110 25
-11 49 -27 52 -36 6 -14 10 -13 33 8 14 14 45 31 68 37 36 11 46 10 79 -6 45
-23 75 -61 78 -101 2 -16 6 -35 10 -41 4 -7 2 -12 -5 -12 -7 0 -9 -3 -6 -6 4
-4 -1 -19 -9 -34 -13 -20 -25 -27 -51 -28 -19 -1 -38 -4 -44 -7 -5 -4 -12 1
-15 9 -9 24 -21 19 -27 -10 -5 -25 -3 -26 35 -21 25 3 40 1 43 -6 2 -7 10 -33
18 -59 10 -33 11 -50 3 -58 -5 -5 -8 -10 -6 -11 3 0 16 -2 29 -5 19 -3 22 -1
16 13 -4 10 -15 44 -23 76 -16 56 -16 57 6 73 53 37 69 132 32 192 -43 70
-135 93 -210 51 l-37 -21 -41 21 c-48 24 -107 33 -144 22z"/>
<path d="M5334 7662 c-9 -5 -8 -11 2 -20 12 -11 14 -10 14 5 0 13 3 14 12 5 7
-7 17 -12 23 -12 5 0 3 5 -5 10 -12 8 -11 10 6 10 11 0 29 -9 39 -20 10 -11
13 -20 7 -20 -6 0 -14 5 -17 10 -4 6 -12 7 -18 3 -7 -4 -30 -8 -52 -7 -29 0
-39 4 -37 15 3 21 -75 -67 -81 -91 -3 -11 -1 -18 3 -15 16 10 20 -12 9 -44
-13 -38 -6 -50 16 -28 17 18 20 37 5 37 -6 0 -2 9 9 21 11 12 17 28 14 37 -4
8 2 21 13 30 16 12 16 14 2 9 -10 -4 -18 -2 -18 3 0 6 19 10 43 11 23 0 52 2
65 3 16 2 30 -6 44 -26 17 -25 19 -33 9 -56 -11 -25 -11 -26 4 -11 8 8 18 32
22 52 5 31 1 40 -25 67 -30 30 -80 40 -108 22z"/>
<path d="M5204 7474 c-8 -55 1 -183 14 -196 6 -6 12 3 16 22 3 18 15 45 27 61
11 16 17 29 13 29 -4 0 -12 -8 -19 -17 -7 -9 -20 -18 -30 -19 -16 -2 -17 5
-12 82 2 46 3 84 2 84 -2 0 -7 -21 -11 -46z"/>
<path d="M5380 7510 c0 -5 5 -10 11 -10 5 0 7 5 4 10 -3 6 -8 10 -11 10 -2 0
-4 -4 -4 -10z"/>
<path d="M4320 7490 c-22 -7 -20 -8 13 -7 20 0 37 4 37 9 0 9 -15 9 -50 -2z"/>
<path d="M4214 7451 c-58 -28 -82 -46 -71 -57 2 -3 20 6 40 19 19 13 49 30 66
37 17 7 31 16 31 21 0 12 3 13 -66 -20z"/>
<path d="M5858 7447 c-44 -27 -373 -416 -399 -472 -25 -55 -24 -146 3 -231 26
-83 27 -167 2 -220 -10 -21 -60 -84 -111 -138 -50 -55 -89 -104 -86 -109 3 -4
34 22 70 60 158 166 191 241 158 356 -42 145 -45 163 -39 202 10 61 34 100
140 225 53 63 131 157 171 208 78 97 123 129 168 118 13 -3 46 -24 75 -47 53
-42 78 -46 44 -8 -30 35 -106 79 -133 79 -15 0 -42 -10 -63 -23z"/>
<path d="M5286 7434 c-13 -13 -14 -19 -5 -25 17 -10 45 19 32 32 -7 7 -16 5
-27 -7z"/>
<path d="M5236 7395 c-3 -8 -1 -15 4 -15 6 0 10 7 10 15 0 8 -2 15 -4 15 -2 0
-6 -7 -10 -15z"/>
<path d="M4040 7384 c0 -17 17 -36 24 -26 3 5 -1 15 -9 22 -8 7 -15 9 -15 4z"/>
<path d="M6080 7356 c0 -16 26 -39 47 -42 10 -2 5 8 -13 27 -32 33 -34 34 -34
15z m31 -23 c13 -16 12 -17 -3 -4 -10 7 -18 15 -18 17 0 8 8 3 21 -13z"/>
<path d="M6145 7301 c-6 -11 49 -56 68 -56 7 -1 11 -7 9 -14 -1 -7 2 -10 7 -7
5 4 11 0 14 -6 2 -7 8 -10 13 -5 7 6 -31 41 -46 42 -16 2 -50 27 -45 35 3 5 1
11 -4 14 -5 4 -12 2 -16 -3z"/>
<path d="M5961 7279 c-1 -25 -22 -59 -66 -105 -48 -51 -150 -177 -147 -181 2
-3 -9 -18 -24 -34 -15 -16 -25 -29 -21 -29 13 0 257 302 263 325 3 13 4 30 1
37 -3 7 -6 1 -6 -13z"/>
<path d="M4360 7271 c-52 -17 -108 -51 -133 -81 -31 -37 -60 -126 -48 -147 6
-11 11 -3 19 29 13 51 57 116 99 145 100 70 268 48 403 -53 141 -107 234 -282
229 -434 -5 -169 -3 -198 15 -239 19 -41 26 -47 40 -34 4 4 -3 15 -16 25 -22
16 -23 22 -24 186 -1 122 -6 184 -18 224 -16 57 -68 142 -131 215 -44 52 -153
125 -220 148 -56 20 -177 29 -215 16z"/>
<path d="M6470 7260 c0 -5 5 -10 10 -10 6 0 11 -32 12 -72 1 -56 2 -62 5 -25
2 26 8 45 12 43 4 -3 6 7 3 23 -3 26 -42 63 -42 41z"/>
<path d="M3894 7228 c-5 -7 -7 -123 -4 -258 l5 -245 8 240 c5 132 11 248 13
258 6 20 -9 23 -22 5z"/>
<path d="M3823 7188 c-5 -7 -6 -26 -2 -43 l7 -30 1 29 c0 16 9 35 19 42 15 12
15 13 1 14 -9 0 -21 -6 -26 -12z"/>
<path d="M6023 7168 c-36 -41 -37 -54 0 -19 36 34 62 36 73 6 8 -20 -24 -65
-126 -182 -44 -51 -78 -93 -75 -93 10 0 146 148 187 201 43 58 45 69 20 92
-26 23 -55 21 -79 -5z"/>
<path d="M6325 7149 c-5 -8 -4 -10 3 -5 7 4 12 0 12 -10 0 -10 3 -14 7 -11 6
7 23 -17 43 -63 9 -19 8 -33 -4 -62 -8 -21 -11 -40 -6 -43 4 -3 15 13 23 34
12 29 14 48 7 73 -12 42 -74 106 -85 87z"/>
<path d="M6571 7124 c0 -11 3 -14 6 -6 3 7 2 16 -1 19 -3 4 -6 -2 -5 -13z"/>
<path d="M3721 7084 l-31 -26 0 -763 c0 -756 0 -763 21 -789 20 -26 22 -26
142 -25 164 2 422 15 333 17 -53 2 -67 5 -63 16 3 7 -4 21 -15 31 -19 15 -37
16 -184 10 l-164 -7 0 756 c0 450 4 755 10 751 5 -3 11 -1 15 5 3 5 13 10 20
10 12 0 15 -33 18 -182 l3 -183 1 201 0 200 -37 2 c-28 2 -46 -4 -69 -24z m89
12 c0 -3 -4 -8 -10 -11 -5 -3 -10 -1 -10 4 0 6 5 11 10 11 6 0 10 -2 10 -4z
m-30 -10 c0 -3 -4 -8 -10 -11 -5 -3 -10 -1 -10 4 0 6 5 11 10 11 6 0 10 -2 10
-4z m-56 -1541 c-4 -8 -8 -15 -10 -15 -2 0 -4 7 -4 15 0 8 4 15 10 15 5 0 7
-7 4 -15z"/>
<path d="M5970 7100 c-9 -6 -10 -10 -3 -10 6 0 15 5 18 10 8 12 4 12 -15 0z"/>
<path d="M6650 7084 c-10 -11 -10 -17 -1 -28 8 -10 9 -16 1 -21 -7 -4 -10
-240 -10 -744 0 -637 -2 -740 -15 -751 -8 -6 -20 -10 -27 -7 -8 4 -7 6 4 6 9
1 19 4 21 9 3 4 -97 8 -222 10 -124 1 -260 5 -301 8 -47 3 -70 2 -61 -4 9 -7
5 -11 -18 -14 -17 -2 -35 0 -40 5 -12 12 -44 -18 -39 -35 5 -15 -13 -14 376
-28 l343 -13 27 27 27 26 1 418 c1 295 -2 419 -10 424 -8 5 -7 8 1 8 10 0 13
69 12 315 -1 174 -5 318 -10 321 -5 3 -6 10 -3 16 8 12 -14 55 -32 62 -7 3
-18 -2 -24 -10z m40 -694 c0 -5 -5 -10 -11 -10 -5 0 -7 5 -4 10 3 6 8 10 11
10 2 0 4 -4 4 -10z m-3 -642 c-3 -8 -6 -5 -6 6 -1 11 2 17 5 13 3 -3 4 -12 1
-19z m22 -45 c2 -2 -3 -3 -11 -3 -9 0 -19 7 -22 16 -6 15 -4 15 11 3 10 -7 20
-15 22 -16z m-8 -32 c6 10 9 8 9 -8 0 -13 -4 -23 -9 -23 -5 0 -12 -7 -15 -16
-6 -15 -4 -15 10 -3 16 13 17 10 12 -35 -6 -50 -23 -72 -44 -56 -6 6 -15 6
-19 2 -5 -4 -5 -1 -1 6 4 7 16 10 26 7 16 -5 18 -2 13 17 -3 13 -6 38 -7 56
-1 24 -5 31 -16 27 -9 -4 -7 1 5 13 11 10 22 15 24 9 2 -5 7 -3 12 4z m-706
-151 c3 -6 -1 -7 -9 -4 -18 7 -21 14 -7 14 6 0 13 -4 16 -10z"/>
<path d="M6574 6770 c0 -173 2 -244 3 -157 2 86 2 228 0 315 -1 86 -3 15 -3
-158z"/>
<path d="M6144 7028 l-29 -33 33 29 c30 28 37 36 29 36 -2 0 -16 -15 -33 -32z"/>
<path d="M4161 6995 c-2 -89 54 -276 78 -261 5 4 13 1 17 -5 4 -8 3 -9 -4 -5
-7 4 -12 3 -12 -2 0 -13 70 -88 71 -76 0 5 4 -1 9 -13 13 -31 104 -101 177
-135 51 -24 84 -32 175 -39 141 -12 184 -32 253 -115 115 -139 160 -196 163
-205 2 -5 -94 -110 -215 -232 -338 -344 -381 -400 -370 -475 13 -80 92 -105
164 -53 39 29 148 145 148 159 0 4 21 30 47 57 82 88 107 117 219 258 61 75
114 137 119 137 4 0 30 -26 57 -57 85 -98 103 -120 97 -126 -3 -3 15 -27 40
-53 25 -26 46 -52 46 -57 0 -6 3 -7 6 -4 4 3 19 -10 34 -31 15 -20 48 -58 73
-83 24 -26 46 -51 48 -57 6 -15 80 -93 129 -134 42 -37 77 -46 114 -32 9 3 16
14 16 23 0 12 -2 13 -8 3 -10 -15 -62 -26 -62 -13 0 5 -8 12 -17 15 -25 9 -70
36 -60 36 4 0 2 6 -5 14 -7 8 -16 12 -20 9 -5 -2 -8 3 -8 11 0 9 -6 15 -12 14
-7 -2 -12 3 -10 10 1 8 -2 11 -8 7 -5 -3 -10 -1 -10 5 0 10 -34 52 -156 189
-38 44 -126 152 -189 235 -142 185 -193 248 -276 347 -163 193 -176 202 -340
217 -113 11 -187 39 -274 105 -37 28 -147 137 -138 137 2 0 -1 9 -7 20 -6 11
-16 17 -22 14 -6 -4 -8 -3 -5 3 8 13 -22 105 -32 99 -4 -3 -7 5 -7 17 -1 105
-5 150 -13 138 -7 -11 -9 -11 -14 0 -3 8 -6 1 -6 -16z m59 -200 c0 -5 -5 -3
-10 5 -5 8 -10 20 -10 25 0 6 5 3 10 -5 5 -8 10 -19 10 -25z m930 -727 c18
-24 37 -48 42 -54 6 -8 4 -11 -5 -10 -18 1 -109 -113 -100 -127 3 -6 1 -7 -4
-4 -13 8 -35 -16 -31 -34 2 -8 -2 -13 -9 -12 -6 2 -35 -28 -64 -65 -29 -37
-87 -107 -128 -157 -42 -49 -67 -84 -56 -76 11 7 1 -4 -22 -26 -23 -23 -39
-43 -36 -47 4 -3 1 -6 -7 -6 -7 0 -30 -15 -50 -34 -41 -37 -87 -66 -76 -47 5
7 -5 11 -27 11 -29 0 -37 5 -47 30 -30 73 32 154 440 570 69 69 130 127 136
128 6 1 26 -17 44 -40z"/>
<path d="M6237 7001 c-4 -17 -3 -21 5 -13 5 5 8 16 6 23 -3 8 -7 3 -11 -10z"/>
<path d="M5813 6918 c-35 -38 -63 -77 -63 -87 0 -23 28 -61 45 -61 18 0 72 46
63 55 -3 4 -16 -3 -27 -14 -51 -51 -89 -3 -42 52 113 133 132 177 24 55z"/>
<path d="M4232 6960 c0 -14 2 -19 5 -12 2 6 2 18 0 25 -3 6 -5 1 -5 -13z"/>
<path d="M6094 6948 c-44 -51 -57 -68 -52 -68 3 0 22 20 42 45 38 46 45 63 10
23z"/>
<path d="M6189 6933 c-13 -16 -12 -17 4 -4 16 13 21 21 13 21 -2 0 -10 -8 -17
-17z"/>
<path d="M6359 6946 c-1 -3 -2 -10 -3 -16 0 -5 -32 -47 -69 -92 -38 -46 -50
-63 -27 -38 82 88 121 138 110 145 -5 3 -11 4 -11 1z"/>
<path d="M4240 6911 c0 -36 20 -94 42 -122 11 -13 16 -18 12 -10 -4 8 -18 46
-30 85 -13 39 -23 60 -24 47z"/>
<path d="M5670 6909 c0 -5 5 -7 10 -4 6 3 10 8 10 11 0 2 -4 4 -10 4 -5 0 -10
-5 -10 -11z"/>
<path d="M5870 6855 c-11 -13 -10 -14 4 -9 9 3 16 10 16 15 0 13 -6 11 -20 -6z"/>
<path d="M6006 6842 l-19 -27 24 22 c12 12 21 24 18 27 -2 2 -13 -8 -23 -22z"/>
<path d="M5941 6769 c-13 -11 -22 -22 -19 -24 2 -3 15 6 28 20 28 30 24 32 -9
4z"/>
<path d="M6503 6715 c0 -33 2 -45 4 -27 2 18 2 45 0 60 -2 15 -4 0 -4 -33z"/>
<path d="M4330 6720 c41 -56 100 -110 143 -134 l32 -17 -35 27 c-19 15 -66 59
-105 98 -54 55 -62 61 -35 26z"/>
<path d="M5901 6721 c-9 -6 -11 -14 -4 -26 9 -15 11 -14 15 9 3 14 5 26 4 26
0 0 -7 -4 -15 -9z"/>
<path d="M6148 6703 c-12 -12 -19 -23 -15 -23 3 0 -31 -38 -77 -85 -79 -80
-96 -106 -55 -85 28 16 199 217 183 217 -7 0 -24 -11 -36 -24z m32 14 c0 -2
-10 -12 -22 -23 l-23 -19 19 23 c18 21 26 27 26 19z"/>
<path d="M5960 6675 c-8 -9 -8 -15 -2 -15 12 0 26 19 19 26 -2 2 -10 -2 -17
-11z"/>
<path d="M4553 6545 c16 -9 54 -18 85 -20 32 -2 46 -2 32 1 -35 6 -104 23
-126 29 -11 4 -6 -1 9 -10z"/>
<path d="M5950 6500 c0 -5 5 -10 11 -10 5 0 7 5 4 10 -3 6 -8 10 -11 10 -2 0
-4 -4 -4 -10z"/>
<path d="M5915 6490 c-3 -6 1 -7 9 -4 18 7 21 14 7 14 -6 0 -13 -4 -16 -10z"/>
<path d="M6501 6474 c0 -11 3 -14 6 -6 3 7 2 16 -1 19 -3 4 -6 -2 -5 -13z"/>
<path d="M5560 6445 c-7 -8 -17 -12 -23 -8 -5 3 -7 2 -4 -4 7 -11 -36 -57 -45
-48 -3 3 -22 -15 -42 -39 -26 -32 -42 -43 -53 -39 -11 4 -14 2 -9 -5 9 -15
-21 -72 -37 -72 -7 0 -19 6 -27 13 -8 6 -4 0 9 -15 14 -16 25 -28 27 -28 1 0
28 33 60 73 32 39 83 98 113 130 30 31 52 57 49 57 -3 0 -11 -7 -18 -15z"/>
<path d="M6502 6420 c0 -14 2 -19 5 -12 2 6 2 18 0 25 -3 6 -5 1 -5 -13z"/>
<path d="M5000 6416 c0 -2 8 -10 18 -17 15 -13 16 -12 3 4 -13 16 -21 21 -21
13z"/>
<path d="M6502 6360 c0 -19 2 -27 5 -17 2 9 2 25 0 35 -3 9 -5 1 -5 -18z"/>
<path d="M5040 6379 c0 -13 426 -439 439 -439 8 0 11 -3 8 -7 -4 -3 42 -56
101 -117 177 -181 219 -228 255 -288 19 -32 37 -55 41 -51 3 3 6 -10 6 -30 0
-20 -4 -39 -10 -42 -5 -3 -10 -11 -10 -17 0 -7 6 -6 15 2 26 21 10 140 -16
124 -5 -3 -9 3 -9 12 0 9 -21 42 -46 73 -74 91 -456 491 -469 491 -6 0 -17 10
-24 23 -6 12 -34 40 -61 62 -27 22 -49 45 -50 50 0 13 -82 95 -95 95 -5 0 -24
14 -42 32 -18 18 -33 29 -33 27z"/>
<path d="M6573 6320 c0 -25 2 -35 4 -22 2 12 2 32 0 45 -2 12 -4 2 -4 -23z"/>
<path d="M6570 5960 c0 -170 -1 -310 -2 -310 -2 0 -57 7 -123 16 -144 18 -625
31 -625 17 0 -6 80 -10 203 -10 185 -1 389 -12 510 -29 l47 -7 0 317 c0 174
-2 316 -5 316 -3 0 -5 -139 -5 -310z"/>
<path d="M6497 6208 c-4 -29 -6 -131 -4 -226 1 -95 0 -176 -3 -180 -3 -4 -129
-8 -280 -7 -265 0 -489 -17 -460 -35 6 -4 30 -4 53 1 154 28 572 36 680 13
l27 -6 0 246 c0 135 -2 246 -4 246 -2 0 -6 -24 -9 -52z"/>
<path d="M2837 6122 c-30 -53 -71 -133 -91 -177 -62 -133 -151 -373 -142 -382
2 -2 16 -5 30 -6 26 -2 29 3 55 83 46 140 150 371 218 482 35 59 36 71 3 88
-16 9 -25 -2 -73 -88z"/>
<path d="M7345 6204 c-19 -14 -19 -16 13 -72 61 -104 179 -356 202 -427 48
-152 51 -157 79 -150 14 4 27 8 28 9 7 6 -73 231 -116 326 -50 112 -153 301
-174 319 -8 6 -19 5 -32 -5z"/>
<path d="M3893 6065 c0 -33 2 -45 4 -27 2 18 2 45 0 60 -2 15 -4 0 -4 -33z"/>
<path d="M7133 6033 c-3 -10 -15 -28 -26 -40 -15 -17 -24 -20 -38 -12 -12 6
-19 6 -19 0 0 -5 14 -12 30 -16 33 -7 39 -21 13 -28 -11 -3 -7 -5 10 -6 21 -1
30 5 37 25 7 17 15 24 25 20 11 -4 15 2 15 22 0 44 -34 69 -47 35z"/>
<path d="M3274 6026 c-40 -18 -47 -37 -28 -76 15 -30 34 -33 34 -5 0 8 4 17
10 20 6 3 7 -1 4 -12 -5 -17 -5 -17 6 0 16 26 21 57 7 57 -16 0 4 17 28 23 16
4 15 5 -5 5 -14 1 -39 -5 -56 -12z"/>
<path d="M6917 6006 c-49 -44 -48 -56 4 -45 22 5 44 7 49 4 13 -8 60 24 60 41
0 8 -5 14 -11 14 -5 0 -8 -4 -4 -9 9 -16 -15 -24 -31 -10 -8 6 -17 9 -21 5 -3
-3 -1 -6 5 -6 7 0 12 -4 12 -9 0 -5 -11 -8 -25 -7 -31 1 -32 13 -3 37 11 11
17 19 11 19 -5 0 -26 -15 -46 -34z"/>
<path d="M7010 5970 c-13 -8 -13 -10 2 -10 9 0 20 5 23 10 8 13 -5 13 -25 0z"/>
<path d="M3822 5806 l-2 -169 63 8 c149 17 306 25 494 25 132 0 204 4 208 11
14 21 -573 1 -727 -26 l-28 -4 -3 162 -3 162 -2 -169z"/>
<path d="M3324 5940 c1 -8 -9 -16 -21 -18 -13 -2 -23 -8 -23 -14 0 -6 11 -8
25 -6 13 3 22 1 19 -3 -8 -14 3 -11 54 15 26 12 57 27 70 32 16 7 3 9 -51 9
-60 0 -74 -3 -73 -15z"/>
<path d="M3254 5896 c11 -9 27 -16 35 -15 14 0 14 1 1 6 -8 3 -24 10 -35 15
-20 9 -20 9 -1 -6z"/>
<path d="M3900 5781 c0 -8 6 -11 16 -7 34 13 373 18 494 7 69 -6 154 -13 190
-17 45 -3 60 -2 50 5 -50 32 -750 44 -750 12z"/>
<path d="M5020 5661 c0 -4 19 -17 43 -29 23 -13 34 -21 25 -18 -31 9 -123 19
-117 13 10 -11 139 -35 139 -26 0 11 49 1 70 -14 13 -10 13 -9 0 5 -17 18
-160 80 -160 69z"/>
<path d="M5330 5645 c-15 -8 -19 -14 -10 -14 18 -1 46 16 40 23 -3 2 -16 -2
-30 -9z"/>
<path d="M5348 5618 c-36 -10 -47 -21 -30 -32 5 -3 36 -6 69 -7 44 -2 60 -6
56 -15 -2 -7 -11 -15 -19 -18 -8 -3 -14 -11 -14 -18 0 -9 3 -9 10 2 8 12 11
13 19 1 6 -9 11 -10 15 -2 4 6 2 11 -5 11 -7 0 -10 2 -7 5 8 9 38 -6 32 -16
-3 -5 0 -9 5 -9 16 0 13 15 -9 43 -18 23 -30 27 -88 29 -59 3 -63 5 -34 12 18
5 35 13 38 17 3 5 4 9 2 8 -2 -1 -20 -6 -40 -11z"/>
<path d="M5214 5594 c-18 -14 -18 -14 6 -3 31 14 36 19 24 19 -6 0 -19 -7 -30
-16z"/>
<path d="M4906 5553 c-13 -21 -22 -40 -20 -42 2 -2 28 0 59 4 50 6 55 8 43 22
-12 15 -11 15 10 4 15 -8 21 -18 18 -27 -3 -8 -2 -12 3 -9 5 3 12 1 16 -5 8
-13 35 -13 35 1 0 5 -4 7 -10 4 -5 -3 -10 -1 -10 6 0 6 8 9 20 6 11 -3 20 -1
20 5 0 5 -14 8 -32 6 -29 -3 -33 0 -34 24 -2 22 2 28 24 31 15 2 -6 5 -45 6
l-73 1 -24 -37z m109 -1 c-3 -3 -11 0 -18 7 -9 10 -8 11 6 5 10 -3 15 -9 12
-12z"/>
<path d="M4410 5570 c-46 -6 -49 -7 -17 -8 39 -2 53 -22 15 -22 -13 0 -34 0
-48 -1 -19 0 -21 -2 -10 -9 12 -7 10 -11 -10 -19 -21 -8 -14 -10 38 -10 43 -1
62 3 62 12 0 8 4 7 10 -3 8 -13 10 -13 10 1 0 9 9 28 21 43 23 30 29 28 -71
16z"/>
<path d="M5926 5562 c-3 -5 1 -9 9 -9 8 0 12 4 9 9 -3 4 -7 8 -9 8 -2 0 -6 -4
-9 -8z"/>
<path d="M5365 5510 c-3 -5 -1 -10 4 -10 6 0 11 5 11 10 0 6 -2 10 -4 10 -3 0
-8 -4 -11 -10z"/>
<path d="M5200 5470 c0 -5 5 -10 11 -10 5 0 7 -4 4 -10 -3 -5 -1 -10 4 -10 13
0 13 3 5 24 -7 18 -24 22 -24 6z"/>
<path d="M7755 5417 c-57 -59 -126 -191 -168 -322 -30 -93 -45 -169 -28 -145
9 12 11 9 12 -15 1 -16 1 -33 0 -37 0 -5 3 -8 8 -8 11 0 21 25 21 51 0 12 4
17 11 14 6 -4 8 -14 5 -22 -5 -11 -2 -13 9 -9 9 3 25 -3 37 -14 24 -22 38 -26
38 -9 0 5 -4 8 -9 5 -5 -3 -12 1 -15 10 -10 27 -7 36 10 30 14 -5 15 -4 5 8
-7 8 -14 31 -17 52 -2 20 -7 40 -10 45 -9 15 19 47 35 41 12 -4 11 0 -4 18
l-20 23 24 -8 c18 -5 22 -4 16 5 -5 7 -9 23 -11 36 -2 20 2 22 34 23 60 0 72
2 72 12 0 5 -5 9 -11 9 -8 0 -9 4 0 13 6 8 7 18 3 22 -4 5 -2 5 5 1 17 -10 8
-75 -14 -91 -17 -13 -17 -14 5 -12 12 1 22 5 22 10 0 5 6 7 14 4 10 -4 16 15
25 82 18 138 15 208 -8 221 -32 17 -43 12 -96 -43z m82 -9 c-3 -8 -6 -5 -6 6
-1 11 2 17 5 13 3 -3 4 -12 1 -19z m-27 -8 c0 -5 -7 -10 -15 -10 -8 0 -15 5
-15 10 0 6 7 10 15 10 8 0 15 -4 15 -10z m24 -64 c2 -20 0 -39 -4 -41 -5 -3
-8 15 -8 40 1 53 8 53 12 1z m-39 16 c-3 -3 -11 0 -18 7 -9 10 -8 11 6 5 10
-3 15 -9 12 -12z m-60 -22 c3 -5 2 -10 -4 -10 -5 0 -13 5 -16 10 -3 6 -2 10 4
10 5 0 13 -4 16 -10z m71 -37 c-10 -10 -19 5 -10 18 6 11 8 11 12 0 2 -7 1
-15 -2 -18z m-23 -48 c-16 -20 -19 -21 -24 -7 -4 10 0 22 8 29 25 19 35 4 16
-22z m-43 -35 c-8 -5 -19 -10 -25 -10 -5 0 -3 5 5 10 8 5 20 10 25 10 6 0 3
-5 -5 -10z m-57 -55 c-3 -9 -8 -14 -10 -11 -3 3 -2 9 2 15 9 16 15 13 8 -4z"/>
<path d="M2465 5315 c3 -33 21 -138 40 -234 20 -96 33 -182 30 -192 -4 -12 3
-22 25 -32 16 -9 30 -11 30 -6 0 6 4 8 9 4 20 -12 21 16 2 42 -19 26 -71 222
-102 380 -6 35 -18 71 -26 80 -13 16 -14 11 -8 -42z"/>
<path d="M2570 5355 c0 -21 51 -247 58 -260 3 -5 7 -20 8 -32 2 -13 8 -49 14
-79 13 -60 7 -109 -12 -98 -6 4 -8 3 -5 -3 5 -7 19 -7 44 2 21 7 39 12 40 11
1 -1 5 -33 9 -72 8 -90 14 -94 14 -11 0 37 4 67 10 67 13 0 3 79 -21 163 -14
49 -24 67 -37 67 -14 0 -14 2 -3 9 11 7 3 31 -41 124 -54 111 -78 146 -78 112z"/>
<path d="M2350 5343 c0 -5 16 -102 35 -218 19 -115 35 -226 35 -245 0 -32 -3
-36 -30 -38 -27 -2 -30 1 -44 50 -16 55 -58 277 -74 383 l-8 60 -13 -40 c-7
-22 -15 -96 -18 -165 -8 -194 28 -363 98 -459 17 -24 34 -39 41 -35 7 4 8 3 4
-4 -4 -6 10 -22 31 -36 45 -31 58 -24 18 9 -17 13 -24 24 -17 25 6 0 12 5 12
11 0 5 -4 8 -9 4 -10 -6 -26 32 -23 53 2 6 -5 12 -15 12 -10 0 -14 -3 -8 -8
13 -9 13 -27 1 -39 -5 -5 -6 -3 -2 5 4 7 1 12 -8 12 -12 0 -14 5 -6 25 8 20 6
29 -9 44 -19 19 -19 20 6 48 15 15 31 28 37 28 6 0 21 4 34 8 19 7 22 16 24
65 3 95 -2 142 -33 282 -16 74 -32 143 -35 153 -5 17 -24 24 -24 10z"/>
<path d="M7740 5160 c0 -5 5 -10 11 -10 5 0 7 5 4 10 -3 6 -8 10 -11 10 -2 0
-4 -4 -4 -10z"/>
<path d="M7811 5114 c0 -11 3 -14 6 -6 3 7 2 16 -1 19 -3 4 -6 -2 -5 -13z"/>
<path d="M7832 5100 c0 -14 2 -19 5 -12 2 6 2 18 0 25 -3 6 -5 1 -5 -13z"/>
<path d="M7730 5100 c0 -5 5 -10 10 -10 6 0 10 5 10 10 0 6 -4 10 -10 10 -5 0
-10 -4 -10 -10z"/>
<path d="M7764 5026 c-1 -28 -3 -71 -4 -96 -1 -25 -1 -106 0 -180 l2 -135 14
65 c7 36 15 95 16 132 2 37 6 68 9 68 9 0 -2 93 -13 107 -5 6 -6 27 -3 46 5
24 3 36 -7 39 -10 4 -13 -8 -14 -46z"/>
<path d="M7822 5020 c0 -14 2 -19 5 -12 2 6 2 18 0 25 -3 6 -5 1 -5 -13z"/>
<path d="M7811 4954 c0 -11 3 -14 6 -6 3 7 2 16 -1 19 -3 4 -6 -2 -5 -13z"/>
<path d="M2455 4900 c6 -48 9 -54 22 -49 5 2 1 24 -9 49 l-19 45 6 -45z"/>
<path d="M7705 4920 c3 -5 8 -10 11 -10 2 0 4 5 4 10 0 6 -5 10 -11 10 -5 0
-7 -4 -4 -10z"/>
<path d="M7541 4904 c0 -11 3 -14 6 -6 3 7 2 16 -1 19 -3 4 -6 -2 -5 -13z"/>
<path d="M7615 4900 c-3 -5 -1 -10 4 -10 6 0 11 5 11 10 0 6 -2 10 -4 10 -3 0
-8 -4 -11 -10z"/>
<path d="M7735 4900 c3 -5 8 -10 11 -10 2 0 4 5 4 10 0 6 -5 10 -11 10 -5 0
-7 -4 -4 -10z"/>
<path d="M7714 4878 c-4 -6 -3 -8 4 -4 6 3 15 -6 20 -21 l10 -28 1 26 c1 28
-23 46 -35 27z"/>
<path d="M7532 4855 c0 -16 2 -22 5 -12 2 9 2 23 0 30 -3 6 -5 -1 -5 -18z"/>
<path d="M7696 4825 c-3 -8 -1 -15 4 -15 6 0 10 7 10 15 0 8 -2 15 -4 15 -2 0
-6 -7 -10 -15z"/>
<path d="M2430 4820 c-9 -6 -10 -10 -3 -10 6 0 15 5 18 10 8 12 4 12 -15 0z"/>
<path d="M7516 4736 c-12 -93 -3 -164 32 -276 16 -52 32 -112 35 -133 12 -77
-63 -298 -178 -528 -31 -60 -53 -115 -49 -121 4 -6 3 -8 -4 -4 -6 4 -31 -28
-61 -77 -161 -266 -410 -533 -674 -720 -86 -61 -123 -93 -115 -99 10 -6 10 -8
1 -8 -7 0 -13 -7 -13 -16 0 -11 -5 -14 -16 -10 -9 3 -18 6 -22 6 -3 0 3 7 14
16 10 8 -1 4 -26 -11 -90 -53 -268 -139 -370 -181 -58 -24 -104 -48 -102 -53
1 -6 -2 -11 -8 -11 -5 0 -10 4 -10 9 0 5 -21 2 -47 -5 -99 -31 -286 -73 -395
-90 -86 -14 -173 -18 -368 -18 -293 -1 -398 12 -650 76 -85 22 -159 41 -165
42 -5 1 -28 10 -50 20 -22 10 -73 31 -113 47 -208 83 -449 229 -647 390 -94
77 -280 266 -357 364 -178 226 -332 504 -418 752 -25 74 -49 134 -53 134 -26
-3 -37 0 -32 9 3 5 12 7 20 3 19 -7 19 -3 -5 87 -11 41 -23 104 -26 139 l-7
64 -27 -32 -28 -31 -10 28 c-6 15 -14 37 -17 50 -6 19 -9 21 -21 11 -8 -7 -13
-18 -10 -26 3 -7 1 -13 -5 -13 -7 0 -9 10 -5 24 4 15 0 28 -9 36 -10 8 -15 9
-15 2 0 -6 5 -14 10 -17 8 -5 7 -11 0 -20 -9 -11 -7 -21 9 -42 11 -16 39 -109
66 -217 106 -434 278 -757 597 -1121 115 -131 193 -199 227 -198 14 0 18 -1 8
-4 -33 -9 -29 -12 123 -129 191 -147 389 -259 631 -355 112 -44 155 -57 146
-42 -4 6 -1 13 6 16 14 5 35 -14 30 -29 -4 -12 192 -68 218 -61 10 3 17 2 14
-3 -5 -8 100 -30 250 -51 103 -15 496 -16 603 -1 170 24 211 33 205 48 -4 11
-10 10 -31 -4 -16 -10 -23 -12 -18 -4 4 7 2 19 -4 27 -9 11 -9 15 -1 15 6 0
11 -4 11 -9 0 -5 18 -7 40 -5 25 2 44 -1 52 -10 14 -15 70 -5 216 41 60 18 82
30 78 39 -3 8 -1 14 4 14 6 0 10 -4 10 -10 0 -15 20 -12 68 10 37 17 42 22 33
39 -9 16 -8 18 9 14 11 -3 17 -10 13 -16 -4 -7 0 -8 11 -4 10 4 22 7 27 7 6 0
8 3 6 8 -3 4 7 7 21 8 25 1 250 107 262 123 3 3 17 12 32 18 65 29 108 63 101
80 -6 15 -4 16 9 6 12 -11 27 -4 87 38 52 36 71 55 67 66 -5 13 -4 14 9 3 12
-10 15 -10 15 4 0 10 4 15 9 12 15 -10 73 45 66 61 -3 11 -1 13 10 10 21 -9
169 129 295 274 39 44 47 58 37 69 -10 10 -9 12 5 7 23 -8 102 93 222 286 10
16 15 31 12 35 -3 3 -6 0 -6 -6 0 -16 -25 -15 -38 1 -5 6 -12 23 -16 37 -3 14
-3 19 0 13 6 -14 35 -18 33 -5 -1 4 -1 15 0 25 1 15 4 15 22 5 13 -9 19 -21
16 -35 -8 -43 14 -10 73 108 95 189 172 394 141 375 -6 -4 -11 0 -11 9 0 9 -3
14 -7 12 -5 -3 -8 5 -9 16 0 12 -4 35 -7 50 -7 35 0 57 18 51 7 -3 16 -1 20 5
12 20 33 -14 29 -45 -2 -16 5 -2 16 31 11 33 21 78 24 100 2 22 6 47 9 55 9
26 27 108 27 124 0 9 -4 16 -9 16 -5 0 -9 -6 -8 -12 3 -77 -14 -99 -27 -36
l-7 33 -14 -32 c-8 -18 -18 -33 -23 -33 -13 0 -24 29 -15 42 3 6 1 8 -4 5 -6
-4 -13 0 -16 8 -4 9 -1 12 8 8 12 -4 13 0 3 28 -6 19 -20 49 -30 67 -10 18
-18 39 -18 48 0 8 -7 17 -15 20 -8 4 -15 12 -15 19 0 7 -6 18 -14 25 -8 6 -16
24 -18 38 -2 15 -8 -3 -12 -42z m-4757 -730 c8 -9 8 -16 2 -20 -6 -4 -15 3
-21 14 -12 23 2 27 19 6z m4806 -86 c3 -5 1 -10 -4 -10 -6 0 -11 5 -11 10 0 6
2 10 4 10 3 0 8 -4 11 -10z m-45 -40 c0 -5 -5 -10 -11 -10 -5 0 -7 5 -4 10 3
6 8 10 11 10 2 0 4 -4 4 -10z m-19 -87 c-9 -15 -10 -14 -7 7 6 35 7 37 12 23
3 -7 1 -20 -5 -30z m-31 -3 c-6 -11 -15 -20 -20 -20 -6 0 -2 9 7 20 10 11 19
20 21 20 1 0 -2 -9 -8 -20z m-58 -38 c-7 -2 -12 -8 -12 -14 0 -6 6 -8 14 -5
18 7 26 -11 16 -37 -6 -17 -7 -18 -13 -3 -3 9 -17 17 -29 17 -13 0 -18 3 -12
8 6 4 14 17 18 30 5 13 12 19 19 15 8 -5 8 -8 -1 -11z m78 4 c0 -3 -4 -8 -10
-11 -5 -3 -10 -1 -10 4 0 6 5 11 10 11 6 0 10 -2 10 -4z m-160 -150 c0 -3 -4
-8 -10 -11 -5 -3 -10 -1 -10 4 0 6 5 11 10 11 6 0 10 -2 10 -4z m30 -20 c0
-11 -19 -15 -25 -6 -3 5 1 10 9 10 9 0 16 -2 16 -4z m-127 -213 c-7 -2 -19 -2
-25 0 -7 3 -2 5 12 5 14 0 19 -2 13 -5z m-63 -7 c0 -3 -4 -8 -10 -11 -5 -3
-10 -1 -10 4 0 6 5 11 10 11 6 0 10 -2 10 -4z m2 -49 c-17 -36 -35 -46 -47
-27 -3 6 -1 10 4 10 6 0 11 5 11 11 0 5 -4 7 -10 4 -5 -3 -10 -2 -10 4 0 16
18 22 23 9 3 -9 10 -6 23 9 25 29 27 24 6 -20z m20 -9 c-7 -7 -12 -8 -12 -2 0
14 12 26 19 19 2 -3 -1 -11 -7 -17z m-83 -37 c7 -5 11 -13 7 -19 -3 -6 0 -13
6 -15 10 -4 10 -6 0 -6 -8 -1 -16 8 -19 18 -3 12 -11 17 -19 14 -8 -3 -14 0
-14 6 0 13 20 14 39 2z m-35 -61 c-7 -6 -24 22 -23 40 0 9 6 5 14 -10 7 -14
11 -27 9 -30z m-69 -70 c3 -5 1 -10 -4 -10 -6 0 -11 5 -11 10 0 6 2 10 4 10 3
0 8 -4 11 -10z m-3627 -155 c-3 -3 -9 2 -12 12 -6 14 -5 15 5 6 7 -7 10 -15 7
-18z m3502 -9 c0 -3 -4 -8 -10 -11 -5 -3 -10 -1 -10 4 0 6 5 11 10 11 6 0 10
-2 10 -4z m-110 -20 c0 -3 -4 -8 -10 -11 -5 -3 -10 -1 -10 4 0 6 5 11 10 11 6
0 10 -2 10 -4z m-3270 -21 c0 -12 -19 -12 -23 0 -4 9 -1 12 9 8 7 -3 14 -7 14
-8z m3296 6 c-3 -5 4 -11 15 -14 18 -5 19 -8 8 -20 -8 -8 -17 -13 -21 -10 -5
2 -8 0 -8 -5 0 -5 -13 -7 -29 -4 -20 3 -28 8 -24 18 3 8 9 14 15 14 5 0 16 7
24 15 17 16 28 20 20 6z m-3266 -25 c0 -2 -7 -6 -15 -10 -8 -3 -15 -1 -15 4 0
6 7 10 15 10 8 0 15 -2 15 -4z m3196 -78 c4 -7 3 -8 -4 -4 -7 4 -12 2 -12 -5
0 -7 -3 -10 -6 -6 -6 5 3 27 11 27 2 0 7 -5 11 -12z m-2969 -94 c-3 -3 -12 -4
-19 -1 -8 3 -5 6 6 6 11 1 17 -2 13 -5z m2797 -14 c-7 -7 -19 -7 -35 -1 -23 9
-22 10 11 10 23 1 31 -2 24 -9z m-139 -19 c-3 -6 -11 -9 -16 -6 -5 4 -9 1 -9
-4 0 -6 -4 -11 -10 -11 -18 0 -10 17 13 27 25 12 32 10 22 -6z m35 9 c0 -5 7
-7 15 -4 8 4 15 2 15 -4 0 -9 -22 -22 -39 -22 -4 0 -7 9 -8 20 -1 11 2 20 8
20 5 0 9 -4 9 -10z m63 -25 c-3 -9 -8 -14 -10 -11 -3 3 -12 -1 -20 -9 -17 -17
-33 -19 -33 -5 0 8 48 36 67 40 1 0 0 -7 -4 -15z m-173 -19 c0 -3 -4 -8 -10
-11 -5 -3 -10 -1 -10 4 0 6 5 11 10 11 6 0 10 -2 10 -4z m84 -2 c21 -8 21 -24
0 -24 -9 0 -12 5 -8 12 5 8 0 9 -14 6 -12 -4 -20 -2 -16 3 6 11 16 11 38 3z
m-2514 -14 c0 -5 -5 -10 -11 -10 -5 0 -7 5 -4 10 3 6 8 10 11 10 2 0 4 -4 4
-10z m65 -57 c1 -17 -2 -20 -14 -14 -9 5 -22 6 -28 4 -7 -3 -13 -2 -13 2 0 13
26 34 39 32 8 -1 15 -12 16 -24z m100 7 c3 -6 -1 -7 -9 -4 -18 7 -21 14 -7 14
6 0 13 -4 16 -10z m-65 -10 c0 -5 -4 -10 -10 -10 -5 0 -10 5 -10 10 0 6 5 10
10 10 6 0 10 -4 10 -10z m2170 -10 c0 -5 -4 -10 -10 -10 -5 0 -10 5 -10 10 0
6 5 10 10 10 6 0 10 -4 10 -10z m35 -12 c-9 -6 -19 -7 -22 -4 -4 3 -1 6 6 6 7
0 9 4 6 10 -4 6 1 7 11 3 15 -6 15 -7 -1 -15z m60 12 c11 -17 -5 -32 -21 -19
-8 6 -14 15 -14 20 0 12 27 11 35 -1z m-110 -40 c-3 -5 -14 -10 -23 -9 -14 0
-13 2 3 9 27 11 27 11 20 0z m-2065 -20 c0 -5 -4 -10 -10 -10 -5 0 -10 5 -10
10 0 6 5 10 10 10 6 0 10 -4 10 -10z m87 4 c-3 -3 -12 -4 -19 -1 -8 3 -5 6 6
6 11 1 17 -2 13 -5z m63 -18 c0 -2 -7 -7 -16 -10 -8 -3 -12 -2 -9 4 6 10 25
14 25 6z m1765 -6 c3 -6 -1 -7 -9 -4 -18 7 -21 14 -7 14 6 0 13 -4 16 -10z
m35 -10 c0 -5 -4 -10 -10 -10 -5 0 -10 5 -10 10 0 6 5 10 10 10 6 0 10 -4 10
-10z m-1490 -69 c0 -5 -7 -11 -14 -14 -10 -4 -13 -1 -9 9 6 15 23 19 23 5z
m1130 5 c0 -3 -4 -8 -10 -11 -5 -3 -10 -1 -10 4 0 6 5 11 10 11 6 0 10 -2 10
-4z m-215 -56 c16 0 17 -2 5 -10 -9 -5 -19 -5 -26 1 -8 6 -14 6 -18 1 -8 -13
-55 -21 -61 -11 -3 4 -16 6 -30 3 -13 -2 -27 1 -31 7 -4 7 -3 9 4 6 5 -4 21
-3 34 2 12 5 41 7 63 5 22 -1 49 -3 60 -4z m75 -4 c-6 -8 -18 -12 -27 -9 -12
5 -12 7 -1 14 7 5 19 9 27 9 11 0 11 -3 1 -14z m-930 -16 c0 -5 -7 -7 -15 -4
-8 4 -15 8 -15 10 0 2 7 4 15 4 8 0 15 -4 15 -10z m731 -21 c-37 -15 -131 -21
-131 -8 0 5 4 8 8 5 4 -2 14 -1 21 3 7 5 38 9 69 9 47 1 53 -1 33 -9z m102 -6
c-13 -2 -33 -2 -45 0 -13 2 -3 4 22 4 25 0 35 -2 23 -4z"/>
<path d="M2370 4780 c0 -5 5 -10 10 -10 6 0 10 5 10 10 0 6 -4 10 -10 10 -5 0
-10 -4 -10 -10z"/>
<path d="M2457 4614 c-4 -4 -3 -12 0 -18 4 -6 7 -20 8 -30 0 -20 25 -36 25
-17 0 6 -5 11 -11 11 -6 0 -8 8 -5 18 6 19 -7 46 -17 36z"/>
<path d="M7752 4585 c0 -16 2 -22 5 -12 2 9 2 23 0 30 -3 6 -5 -1 -5 -18z"/>
<path d="M7701 4574 c0 -11 3 -14 6 -6 3 7 2 16 -1 19 -3 4 -6 -2 -5 -13z"/>
<path d="M7623 4207 c-1 -26 0 -28 7 -12 11 26 12 45 3 45 -5 0 -9 -15 -10
-33z"/>
<path d="M3583 3979 c-18 -18 -19 -579 -1 -597 16 -16 144 -16 154 -1 6 10 11
73 13 167 1 18 7 22 34 22 30 0 34 -5 82 -98 l50 -97 81 -3 c116 -4 118 1 42
128 l-61 104 23 15 c12 8 34 33 48 55 22 34 27 53 27 112 0 62 -4 76 -29 112
-50 73 -94 86 -286 90 -124 3 -168 0 -177 -9z m291 -150 c32 -25 35 -70 6 -99
-15 -15 -33 -20 -75 -20 l-55 0 0 70 0 70 49 0 c34 0 56 -6 75 -21z"/>
<path d="M4278 3826 c-53 -19 -83 -41 -111 -78 -88 -119 -51 -295 76 -360 86
-43 238 -30 304 26 l27 24 -19 41 c-23 53 -27 55 -68 37 -51 -21 -110 -28
-138 -17 -29 10 -59 37 -59 52 0 5 56 9 129 9 154 0 155 1 149 94 -5 77 -38
134 -94 161 -50 23 -149 29 -196 11z m124 -133 c10 -9 18 -24 18 -35 0 -16 -8
-18 -65 -18 -72 0 -83 12 -45 50 24 24 67 26 92 3z"/>
<path d="M4790 3831 c-164 -50 -229 -242 -129 -380 69 -96 234 -119 340 -48
42 28 46 53 16 97 -25 38 -39 40 -101 17 -96 -36 -168 43 -121 132 8 16 22 31
30 35 28 11 89 6 115 -9 35 -20 36 -19 65 22 32 48 33 73 2 73 -37 0 -113 29
-133 51 -18 20 -41 23 -84 10z"/>
<path d="M5556 3825 c-21 -7 -43 -18 -49 -24 -15 -15 -27 -14 -27 4 0 18 -34
27 -91 23 l-44 -3 -3 -300 c-3 -340 -6 -325 79 -325 77 0 79 2 79 90 l0 77 68
0 c148 -1 230 77 240 228 7 118 -45 209 -136 235 -48 13 -68 12 -116 -5z m44
-140 c81 -42 33 -191 -59 -183 l-36 3 0 85 c0 80 1 85 25 97 32 16 35 16 70
-2z"/>
<path d="M6007 3826 c-59 -22 -103 -62 -132 -121 -50 -102 -23 -226 64 -292
55 -42 110 -57 192 -50 68 6 157 40 166 64 7 19 -4 57 -25 83 -19 23 -20 23
-61 7 -59 -24 -132 -22 -165 4 -14 11 -26 25 -26 30 0 5 56 9 128 9 70 0 134
5 142 10 21 13 18 115 -4 157 -48 94 -170 137 -279 99z m133 -135 c23 -43 14
-51 -55 -51 -51 0 -65 3 -65 15 0 47 98 77 120 36z"/>
<path d="M6465 3826 c-22 -9 -55 -31 -72 -50 -27 -29 -33 -44 -33 -81 0 -89
32 -120 157 -153 46 -12 69 -23 71 -34 5 -29 -55 -33 -124 -9 -32 12 -63 22
-69 24 -13 3 -55 -81 -49 -98 3 -7 29 -23 57 -36 71 -31 203 -33 262 -4 79 40
108 132 65 203 -22 36 -61 56 -142 73 -65 14 -83 26 -67 45 15 18 53 18 118
-2 40 -11 56 -12 66 -4 18 15 38 76 30 90 -24 39 -199 62 -270 36z"/>
<path d="M5200 3799 c-40 -22 -81 -24 -98 -7 -9 9 -12 -35 -12 -200 l0 -212
23 -5 c13 -4 48 -5 78 -3 l54 3 3 223 c1 122 -1 221 -5 221 -5 -1 -24 -10 -43
-20z"/>
</g>
</svg>
